<svg width="46" height="20" viewBox="0 0 46 20" fill="none" xmlns="http://www.w3.org/2000/svg"><path d="M6.842 18.22a11.86 11.86 0 01-3.454-.506c-1.1-.337-1.973-.785-2.618-1.342l.99-2.222c.63.499 1.4.91 2.31 1.232a8.72 8.72 0 002.772.462c1.144 0 1.995-.183 2.552-.55.572-.367.858-.85.858-1.452 0-.44-.161-.8-.484-1.078-.308-.293-.704-.52-1.188-.682a26.73 26.73 0 00-1.98-.55c-1.173-.279-2.127-.557-2.86-.836a4.843 4.843 0 01-1.87-1.298c-.513-.601-.77-1.408-.77-2.42 0-.85.227-1.62.682-2.31.47-.704 1.166-1.261 2.09-1.672.939-.41 2.083-.616 3.432-.616.939 0 1.863.117 2.772.352.91.235 1.694.572 2.354 1.012l-.902 2.222a8.9 8.9 0 00-2.112-.902 7.9 7.9 0 00-2.134-.308c-1.13 0-1.973.19-2.53.572-.543.381-.814.887-.814 1.518 0 .44.154.8.462 1.078a3.54 3.54 0 001.21.66 26.73 26.73 0 001.98.55c1.144.264 2.083.543 2.816.836a4.635 4.635 0 011.87 1.298c.528.587.792 1.379.792 2.376 0 .85-.235 1.62-.704 2.31-.455.69-1.151 1.24-2.09 1.65-.939.41-2.083.616-3.432.616zM17.664 2.6h2.86v12.98h8.052V18H17.664V2.6zm26.48 13.002V18h-11.55V2.6h11.242v2.398h-8.382v4.004h7.436v2.354h-7.436v4.246h8.69z" fill="#000"/></svg>