<svg width="167" height="297" viewBox="0 0 167 297" xmlns="http://www.w3.org/2000/svg"><path d="M87.312 28.56h-1v-1h1v1zm13.739 0v-1h1.003l-.003 1.002-1-.003zm-.075 26.725l.707.707-1.714 1.714.007-2.424 1 .003zm36.061-36.061l-.707-.707.706-.706.707.704-.706.709zm10.05 10.013l.706-.709.71.707-.709.709-.707-.707zm-36.098 36.098v1h-2.415l1.708-1.707.707.707zm26.801 0v-1h1.005l-.005 1.006-1-.006zM137.714 79l1 .005-.005.995h-.995v-1zm-50.402 0v1h-1v-1h1zm0-51.44h13.739v2h-13.74v-2zm14.739 1.002l-.075 26.726-2-.006.075-26.726 2 .006zm-1.782 26.016l36.061-36.061 1.414 1.414-36.061 36.061-1.414-1.414zm37.474-36.063l10.05 10.013-1.411 1.417-10.051-10.013 1.412-1.416zm10.051 11.429l-36.098 36.099-1.414-1.415L146.38 28.53l1.414 1.414zm-36.805 34.391h26.801v2h-26.801v-2zm27.801 1.006l-.076 13.664-1.999-.011.075-13.664 2 .011zM137.714 80H87.312v-2h50.402v2zm-51.402-1V28.56h2V79h-2zm1 111.559h-1v-1h1v1zm13.739 0v-1h1.003l-.003 1.003-1-.003zm-.075 26.726l.707.707-1.714 1.714.007-2.424 1 .003zm36.061-36.061l-.707-.707.706-.706.707.705-.706.708zm10.05 10.013l.706-.709.71.707-.709.709-.707-.707zm-36.098 36.098v1h-2.415l1.708-1.707.707.707zm26.801 0v-1h1.005l-.005 1.006-1-.006zM137.714 241l1 .005-.005.995h-.995v-1zm-50.402 0v1h-1v-1h1zm0-51.441h13.739v2h-13.74v-2zm14.739 1.003l-.075 26.726-2-.006.075-26.726 2 .006zm-1.782 26.016l36.061-36.061 1.414 1.414-36.061 36.061-1.414-1.414zm37.474-36.062l10.05 10.012-1.411 1.417-10.051-10.013 1.412-1.416zm10.051 11.428l-36.098 36.099-1.414-1.415 36.098-36.098 1.414 1.414zm-36.805 34.391h26.801v2h-26.801v-2zm27.801 1.006l-.076 13.664-1.999-.011.075-13.664 2 .011zM137.714 242H87.312v-2h50.402v2zm-51.402-1v-50.441h2V241h-2zm1-131.441h-1v-1h1v1zm13.739 0v-1h1.003l-.003 1.003-1-.003zm-.075 26.726l.707.707-1.714 1.714.007-2.424 1 .003zm36.061-36.061l-.707-.707.706-.706.707.704-.706.709zm10.05 10.013l.706-.709.71.707-.709.709-.707-.707zm-36.098 36.098v1h-2.415l1.708-1.707.707.707zm26.801 0v-1h1.005l-.005 1.006-1-.006zM137.714 160l1 .005-.005.995h-.995v-1zm-50.402 0v1h-1v-1h1zm0-51.441h13.739v2h-13.74v-2zm14.739 1.003l-.075 26.726-2-.006.075-26.726 2 .006zm-1.782 26.016l36.061-36.061 1.414 1.414-36.061 36.061-1.414-1.414zm37.474-36.063l10.05 10.013-1.411 1.417-10.051-10.013 1.412-1.416zm10.051 11.429l-36.098 36.099-1.414-1.415 36.098-36.098 1.414 1.414zm-36.805 34.391h26.801v2h-26.801v-2zm27.801 1.006l-.076 13.664-1.999-.011.075-13.664 2 .011zM137.714 161H87.312v-2h50.402v2zm-51.402-1v-50.441h2V160h-2zm-73-77.44h-1v-1h1v1zm13.74 0v-1h1.002l-.003 1.002-1-.003zm-.076 26.725l.707.707-1.714 1.714.007-2.424 1 .003zm36.06-36.061l-.706-.707.706-.706.707.704-.706.709zm10.051 10.013l.706-.709.71.707-.709.709-.707-.707zM36.99 119.335v1h-2.415l1.708-1.707.707.707zm26.8 0v-1h1.006l-.005 1.006-1-.006zM63.715 133l1 .005-.005.995h-.995v-1zm-50.402 0v1h-1v-1h1zm0-51.44h13.74v2h-13.74v-2zm14.74 1.002l-.076 26.726-2-.006.075-26.726 2 .006zm-1.783 26.016l36.06-36.061 1.415 1.414-36.061 36.061-1.414-1.414zm37.474-36.063l10.05 10.013-1.411 1.417-10.05-10.013 1.41-1.416zm10.051 11.429l-36.098 36.099-1.414-1.415L72.38 82.53l1.415 1.414zM36.99 118.335h26.8v2h-26.8v-2zm27.8 1.006l-.075 13.664-2-.011.076-13.664 2 .011zM63.715 134H13.313v-2h50.403v2zm-51.402-1V82.56h2V133h-2zm.999 111.559h-1v-1h1v1zm13.74 0v-1h1.002l-.003 1.003-1-.003zm-.076 26.726l.707.707-1.714 1.714.007-2.424 1 .003zm36.06-36.061l-.706-.707.706-.706.707.705-.706.708zm10.051 10.013l.706-.709.71.707-.709.709-.707-.707zM36.99 281.335v1h-2.415l1.708-1.707.707.707zm26.8 0v-1h1.006l-.005 1.006-1-.006zM63.715 295l1 .005-.005.995h-.995v-1zm-50.402 0v1h-1v-1h1zm0-51.441h13.74v2h-13.74v-2zm14.74 1.003l-.076 26.726-2-.006.075-26.726 2 .006zm-1.783 26.016l36.06-36.061 1.415 1.414-36.061 36.061-1.414-1.414zm37.474-36.062l10.05 10.012-1.411 1.417-10.05-10.013 1.41-1.416zm10.051 11.428l-36.098 36.099-1.414-1.415L72.38 244.53l1.415 1.414zM36.99 280.335h26.8v2h-26.8v-2zm27.8 1.006l-.075 13.664-2-.011.076-13.664 2 .011zM63.715 296H13.313v-2h50.403v2zm-51.402-1v-50.441h2V295h-2zm.999-131.441h-1v-1h1v1zm13.74 0v-1h1.002l-.003 1.003-1-.003zm-.076 26.726l.707.707-1.714 1.714.007-2.424 1 .003zm36.06-36.061l-.706-.707.706-.706.707.705-.706.708zm10.051 10.013l.706-.709.71.707-.709.709-.707-.707zM36.99 200.335v1h-2.415l1.708-1.707.707.707zm26.8 0v-1h1.006l-.005 1.006-1-.006zM63.715 214l1 .005-.005.995h-.995v-1zm-50.402 0v1h-1v-1h1zm0-51.441h13.74v2h-13.74v-2zm14.74 1.003l-.076 26.726-2-.006.075-26.726 2 .006zm-1.783 26.016l36.06-36.061 1.415 1.414-36.061 36.061-1.414-1.414zm37.474-36.062l10.05 10.012-1.411 1.417-10.05-10.013 1.41-1.416zm10.051 11.428l-36.098 36.099-1.414-1.415L72.38 163.53l1.415 1.414zM36.99 199.335h26.8v2h-26.8v-2zm27.8 1.006l-.075 13.664-2-.011.076-13.664 2 .011zM63.715 215H13.313v-2h50.403v2zm-51.402-1v-50.441h2V214h-2z"/></svg>