<svg width="194" height="444" viewBox="0 0 194 444" xmlns="http://www.w3.org/2000/svg"><g opacity=".4" fill-rule="evenodd" clip-rule="evenodd"><path d="M165.084 249.929l-14.24-.026-.001 51.243-19.022-19.023-9.645 9.752 35.774 35.774 35.801-35.801-9.752-9.752-18.915 19.023v-51.19zm18.917 33.589l-19.921 20.034v-52.621l-12.233-.023v52.661l-20.022-20.022-8.233 8.324 34.358 34.358 34.381-34.381-8.33-8.33z"/><path opacity=".4" d="M50.532 364.481l-14.24-.027v51.243L17.27 396.675l-9.645 9.752L43.399 442.2l35.8-35.8-9.751-9.752-18.916 19.023v-51.19zM69.45 398.07l-19.921 20.034v-52.621l-12.233-.023v52.661l-20.022-20.023-8.233 8.325 34.358 34.358L77.78 406.4l-8.33-8.33z"/><path opacity=".6" d="M107.808 307.205l-14.24-.027v51.243l-19.023-19.022-9.645 9.751 35.774 35.774 35.801-35.801-9.752-9.751-18.915 19.022v-51.189zm18.917 33.588l-19.921 20.034v-52.62l-12.233-.023v52.66L74.55 340.822l-8.233 8.324 34.358 34.359 34.381-34.382-8.33-8.33z"/></g><g opacity=".4" fill-rule="evenodd" clip-rule="evenodd"><path d="M165.083 121.212l-14.24-.027v51.243l-19.022-19.023-9.645 9.752 35.774 35.774 35.8-35.801-9.751-9.751-18.916 19.022v-51.189zm18.918 33.588l-19.922 20.034v-52.621l-12.232-.023v52.661l-20.022-20.022-8.234 8.324 34.359 34.358 34.381-34.381-8.33-8.33z"/><path opacity=".4" d="M51.483 236.714l-16.139-.03v58.076l-21.559-21.559-10.93 11.052 40.543 40.543 40.574-40.574-11.051-11.052-21.438 21.559v-58.015zm21.44 38.068l-22.578 22.705V237.85l-13.863-.026v59.682L13.79 274.814l-9.331 9.434 38.94 38.94 38.965-38.966-9.441-9.44z"/><path opacity=".6" d="M107.807 178.487l-14.24-.027v51.243l-19.022-19.022-9.645 9.751 35.774 35.774 35.8-35.8-9.751-9.752-18.916 19.022v-51.189zm18.918 33.589l-19.922 20.033v-52.62l-12.232-.023v52.66l-20.022-20.022-8.234 8.325 34.359 34.358 34.381-34.381-8.33-8.33z"/></g><g opacity=".4" fill-rule="evenodd" clip-rule="evenodd"><path d="M165.084 3.807l-14.24-.026-.001 51.242-19.022-19.022-9.645 9.752 35.774 35.774 35.801-35.801-9.752-9.752-18.915 19.023V3.807zm18.917 33.589L164.08 57.43V4.81l-12.233-.024v52.66l-20.022-20.021-8.233 8.324 34.358 34.358 34.381-34.381-8.33-8.33z"/><path opacity=".4" d="M50.532 118.359l-14.24-.027v51.243L17.27 150.553l-9.645 9.751 35.774 35.774 35.8-35.8-9.751-9.752-18.916 19.023v-51.19zm18.918 33.589l-19.921 20.034v-52.621l-12.233-.023v52.661l-20.022-20.023-8.233 8.325 34.358 34.358 34.381-34.381-8.33-8.33z"/><path opacity=".6" d="M107.808 61.083l-14.24-.027v51.243L74.545 93.276l-9.645 9.752 35.774 35.774 35.801-35.801-9.752-9.751-18.915 19.022v-51.19zm18.917 33.588l-19.921 20.034v-52.62l-12.233-.023v52.66L74.55 94.7l-8.233 8.324 34.358 34.359 34.381-34.382-8.33-8.33z"/></g></svg>