<svg width="150" height="150" viewBox="0 0 150 150" xmlns="http://www.w3.org/2000/svg"><path d="M72.48 138.905l-.44 9.189-1.08-.052.44-9.189 1.08.052zm-8.936-.985l-1.723 9.037-1.061-.202 1.724-9.037 1.06.202zm-8.708-2.226l-2.974 8.706-1.022-.349 2.973-8.706 1.023.349zm-8.311-3.427l-4.164 8.204-.963-.489 4.164-8.204.963.489zm-7.75-4.557l-5.273 7.539-.885-.619 5.273-7.539.885.619zm-7.033-5.597l-6.278 6.725-.79-.737 6.278-6.725.79.737zm-6.18-6.528l-7.158 5.779-.679-.841 7.159-5.779.678.841zm-5.204-7.332l-7.897 4.719-.554-.927 7.897-4.719.554.927zm-4.125-7.986l-8.48 3.566-.42-.996 8.482-3.565.418.995zM13.27 91.78l-8.898 2.342-.275-1.044 8.898-2.342.274 1.045zm-1.747-8.817l-9.137 1.07-.126-1.072 9.137-1.071.126 1.073zm-.493-8.977l-9.197-.22.026-1.08 9.197.22-.026 1.08zm.77-8.956l-9.075-1.507.177-1.065 9.075 1.507-.177 1.066zm2.019-8.76l-8.775-2.764.324-1.03 8.775 2.764-.325 1.03zm3.225-8.39l-8.3-3.968.465-.974 8.301 3.967-.466.974zm4.37-7.857l-7.663-5.09.598-.9 7.663 5.09-.598.9zm5.429-7.165l-6.874-6.114.718-.807 6.873 6.114-.717.807zm6.378-6.334l-5.948-7.018.823-.698 5.95 7.018-.825.698zm7.204-5.378l-4.906-7.782.913-.576 4.907 7.782-.914.576zm7.886-4.314l-3.767-8.394.986-.442 3.767 8.394-.986.442zm8.413-3.168L54.17 4.826l1.038-.3 2.553 8.839-1.037.3zm8.774-1.955l-1.29-9.11 1.07-.15 1.29 9.108-1.07.152zm8.962-.707v-9.2h1.08v9.2h-1.08zm8.972.555l1.29-9.109 1.07.152-1.29 9.109-1.07-.152zm8.806 1.808l2.553-8.839 1.038.3-2.554 8.838-1.037-.3zm8.465 3.025l3.768-8.393.985.442-3.767 8.393-.986-.442zm7.958 4.18l4.906-7.782.914.576-4.907 7.782-.913-.576zm7.294 5.255l5.948-7.018.824.699-5.949 7.018-.823-.699zm6.484 6.225l6.874-6.114.718.807-6.874 6.115-.718-.807zm5.548 7.075l7.663-5.092.598.9-7.663 5.091-.598-.9zm4.503 7.779l8.3-3.966.466.974-8.301 3.967-.465-.975zm3.367 8.336l8.775-2.764.324 1.03-8.775 2.764-.324-1.03zm2.165 8.724l9.076-1.507.177 1.066-9.076 1.507-.177-1.066zm.921 8.942l9.198-.22.026 1.08-9.198.22-.026-1.08zm-.34 8.984l9.137 1.07-.126 1.073-9.137-1.07.126-1.073zm-1.597 8.846l8.897 2.341-.275 1.044-8.897-2.34.275-1.045zm-2.821 8.536l8.481 3.565-.419.995-8.481-3.565.419-.995zm-3.99 8.055l7.898 4.719-.554.927-7.898-4.719.554-.927zm-5.079 7.417l7.158 5.779-.678.84-7.158-5.779.678-.84zm-6.068 6.632l6.278 6.726-.79.737-6.277-6.726.789-.737zm-6.938 5.715l5.273 7.539-.885.619-5.273-7.539.885-.619zm-7.671 4.687l4.164 8.204-.963.489-4.164-8.204.963-.489zm-8.252 3.565l2.973 8.707-1.022.349-2.973-8.707 1.022-.349zm-8.671 2.375l1.724 9.037-1.06.202-1.724-9.037 1.06-.202zm-7.744 1.001l.44 9.19-1.079.051-.44-9.189 1.08-.052z"/></svg>