<svg width="342" height="342" viewBox="0 0 342 342" xmlns="http://www.w3.org/2000/svg"><path d="M185.405 340.43l-.804.064-1.278-16.017.804-.065 1.278 16.018zm-13.546.644h-.806l-.002-16.068h.806l.002 16.068zm-13.554-.435l-.805-.064 1.275-16.018.804.064-1.274 16.018zm-13.477-1.51l-.797-.128 2.543-15.866.796.128-2.542 15.866zm-13.316-2.576l-.784-.191 3.795-15.613.784.19-3.795 15.614zm-13.066-3.625l-.767-.253 5.024-15.262.766.252-5.023 15.263zm-12.738-4.655l-.744-.312 6.22-14.815.744.312-6.22 14.815zm-12.33-5.65l-.717-.371 7.378-14.274.716.371-7.377 14.274zm-11.841-6.613l-.685-.427 8.488-13.643.685.427-8.488 13.643zm-11.277-7.533l-.649-.48 9.546-12.926.648.48-9.545 12.926zm-10.644-8.405l-.61-.529 10.543-12.127.609.53-10.542 12.126zm-9.944-9.222l-.564-.577 11.472-11.25.565.576-11.473 11.251zm-9.178-9.989l-.517-.619 12.33-10.303.517.619-12.33 10.303zm-8.355-10.681l-.467-.659 13.11-9.291.466.659-13.11 9.291zm-7.482-11.315l-.413-.693 13.806-8.22.413.693-13.806 8.22zm-6.559-11.871l-.357-.724 14.416-7.097.357.724-14.416 7.097zm-5.595-12.357l-.297-.75 14.934-5.929.298.75-14.935 5.929zm-4.595-12.76l-.237-.771 15.358-4.724.237.771-15.358 4.724zm-3.566-13.086l-.175-.788 15.685-3.487.175.787-15.685 3.488zm-2.518-13.328l-.112-.799 15.912-2.23.112.799-15.912 2.23zm-1.45-13.488l-.049-.806 16.04-.959.048.806-16.04.959zM0 168.418l.016-.807 16.065.319-.016.806L0 168.418zm.704-13.547l.08-.803 15.989 1.594-.08.803-15.99-1.594zm1.778-13.447l.144-.794 15.811 2.859-.143.794-15.812-2.859zm2.842-13.264l.206-.78 15.535 4.107-.206.78-15.535-4.107zm3.884-12.994l.267-.761 15.16 5.329-.268.761-15.159-5.329zm4.906-12.646l.327-.738 14.687 6.516-.327.738-14.687-6.516zm5.893-12.215l.385-.71 14.123 7.663-.385.71-14.123-7.663zm6.848-11.709l.44-.677 13.469 8.761-.44.677-13.47-8.761zm7.753-11.129l.493-.64 12.73 9.804-.492.64-12.73-9.804zm8.614-10.477l.542-.598 11.911 10.784-.541.598L43.222 56.99zm9.419-9.758l.587-.553 11.018 11.697-.588.553-11.017-11.697zm10.164-8.98l.63-.505 10.053 12.535-.63.505-10.053-12.535zm10.847-8.142l.668-.454 9.025 13.294-.667.453-9.026-13.294zm11.458-7.256l.7-.4 7.941 13.97-.7.398-7.942-13.969zm11.997-6.321l.731-.342 6.806 14.556-.731.342-6.806-14.556zm12.464-5.349l.756-.283 5.628 15.05-.756.283-5.628-15.05zm12.849-4.342l.776-.222 4.415 15.45-.776.222-4.415-15.45zm13.15-3.307l.791-.16 3.174 15.752-.791.16-3.174-15.752zm13.375-2.25l.801-.096 1.912 15.954-.801.096-1.912-15.954zM162.456.104l.806-.033.638 16.056-.806.032-.638-16.055zM176.016 0l.806.032-.638 16.056-.807-.033L176.016 0zm13.526.975l.802.096-1.913 15.954-.801-.096L189.542.975zm13.407 2.046l.791.16-3.173 15.752-.791-.16 3.173-15.752zm13.201 3.106l.776.222-4.415 15.45-.776-.222 4.415-15.45zm12.913 4.144l.756.283-5.628 15.05-.756-.282 5.628-15.05zm12.543 5.159l.731.341-6.806 14.556-.731-.342 6.806-14.555zm12.093 6.136l.702.4-7.941 13.968-.702-.399 7.941-13.969zm11.567 7.08l.668.454-9.026 13.294-.667-.454 9.025-13.293zm10.97 7.977l.629.505-10.053 12.535-.629-.505 10.053-12.535zm10.3 8.822l.587.554-11.017 11.696-.588-.553 11.018-11.697zm9.567 9.614l.541.598-11.911 10.784-.542-.598 11.912-10.784zm8.773 10.343l.492.64-12.731 9.803-.492-.64 12.731-9.803zm7.923 11.008l.44.677-13.47 8.76-.44-.676 13.47-8.76zm7.024 11.604l.384.709-14.123 7.663-.384-.71 14.123-7.662zm6.08 12.125l.327.737-14.687 6.517-.327-.738 14.687-6.516zM331 112.707l.267.761-15.158 5.329-.268-.761L331 112.707zm4.085 12.934l.206.78-15.534 4.107-.206-.78 15.534-4.107zm3.043 13.218l.143.794-15.811 2.86-.144-.794 15.812-2.86zm1.981 13.42l.08.803-15.988 1.594-.081-.802 15.989-1.595zm.912 13.533l.016.807-16.065.319-.016-.807 16.065-.319zm-.167 13.561l-.048.805-16.04-.959.048-.805 16.04.959zm-1.243 13.508l-.112.799-15.912-2.231.112-.799 15.912 2.231zm-2.312 13.365l-.175.788-15.685-3.488.175-.788 15.685 3.488zm-3.369 13.141l-.237.771-15.358-4.724.237-.771 15.358 4.724zm-4.4 12.83l-.297.75-14.935-5.929.298-.75 14.934 5.929zm-5.405 12.439l-.356.724-14.416-7.097.356-.724 14.416 7.097zm-6.377 11.971l-.413.693-13.806-8.22.413-.693 13.806 8.22zm-7.307 11.428l-.467.658-13.109-9.291.466-.658 13.11 9.291zm-8.191 10.806l-.518.62-12.33-10.304.518-.619 12.33 10.303zm-9.026 10.127l-.565.576-11.472-11.25.565-.576 11.472 11.25zm-9.801 9.375l-.608.53-10.543-12.127.609-.529 10.542 12.126zm-10.515 8.567l-.649.479-9.545-12.926.649-.479 9.545 12.926zm-11.161 7.703l-.685.426-8.489-13.643.685-.426 8.489 13.643zm-11.739 6.795l-.716.37-7.378-14.274.717-.371 7.377 14.275zm-12.24 5.836l-.744.312-6.22-14.815.744-.313 6.22 14.816zm-12.666 4.847l-.767.253-5.023-15.263.766-.252 5.024 15.262zm-13.011 3.827l-.784.19-3.795-15.613.784-.191 3.795 15.614zm-13.274 2.779l-.797.128-2.543-15.866.797-.128 2.543 15.866z"/><path d="M185.365 340.434l-.804.064-1.275-16.018.805-.064 1.274 16.018zm-13.548.64h-.806l.001-16.068h.807l-.002 16.068zm-13.553-.439l-.805-.064 1.279-16.018.804.065-1.278 16.017z"/></svg>